<svg width="32" height="34" viewBox="0 0 32 34" fill="none" xmlns="http://www.w3.org/2000/svg">
<path d="M10.7032 25.694C10.7032 25.8233 10.5548 25.9267 10.3677 25.9267C10.1548 25.9461 10.0065 25.8427 10.0065 25.694C10.0065 25.5647 10.1548 25.4612 10.3419 25.4612C10.5355 25.4418 10.7032 25.5453 10.7032 25.694ZM8.69677 25.403C8.65161 25.5323 8.78065 25.681 8.97419 25.7198C9.14194 25.7845 9.33548 25.7198 9.37419 25.5905C9.4129 25.4612 9.29032 25.3125 9.09677 25.2543C8.92903 25.2091 8.74194 25.2737 8.69677 25.403ZM11.5484 25.2931C11.3613 25.3384 11.2323 25.4612 11.2516 25.6099C11.271 25.7392 11.4387 25.8233 11.6323 25.778C11.8194 25.7328 11.9484 25.6099 11.929 25.4806C11.9097 25.3578 11.7355 25.2737 11.5484 25.2931ZM15.7935 0.517242C6.84516 0.517242 0 7.32543 0 16.2931C0 23.4634 4.50323 29.5991 10.9355 31.7586C11.7613 31.9073 12.0516 31.3966 12.0516 30.9763C12.0516 30.5754 12.0323 28.3642 12.0323 27.0065C12.0323 27.0065 7.51613 27.9763 6.56774 25.0797C6.56774 25.0797 5.83226 23.1983 4.77419 22.7134C4.77419 22.7134 3.29677 21.6983 4.87742 21.7177C4.87742 21.7177 6.48387 21.847 7.36774 23.3858C8.78064 25.8815 11.1484 25.1638 12.071 24.7371C12.2194 23.7026 12.6387 22.9849 13.1032 22.5582C9.49677 22.1573 5.85806 21.6336 5.85806 15.4138C5.85806 13.6358 6.34839 12.7435 7.38065 11.6056C7.2129 11.1853 6.66452 9.45259 7.54839 7.21552C8.89677 6.79526 12 8.96121 12 8.96121C13.2903 8.59914 14.6774 8.41164 16.0516 8.41164C17.4258 8.41164 18.8129 8.59914 20.1032 8.96121C20.1032 8.96121 23.2065 6.78879 24.5548 7.21552C25.4387 9.45905 24.8903 11.1853 24.7226 11.6056C25.7548 12.75 26.3871 13.6422 26.3871 15.4138C26.3871 21.653 22.5871 22.1509 18.9806 22.5582C19.5742 23.069 20.0774 24.0388 20.0774 25.5582C20.0774 27.7371 20.0581 30.4332 20.0581 30.9634C20.0581 31.3836 20.3548 31.8944 21.1742 31.7457C27.6258 29.5991 32 23.4634 32 16.2931C32 7.32543 24.7419 0.517242 15.7935 0.517242ZM6.27097 22.8168C6.1871 22.8815 6.20645 23.0302 6.31613 23.153C6.41935 23.2565 6.56774 23.3017 6.65161 23.2177C6.73548 23.153 6.71613 23.0043 6.60645 22.8815C6.50323 22.778 6.35484 22.7328 6.27097 22.8168ZM5.57419 22.2931C5.52903 22.3772 5.59355 22.4806 5.72258 22.5453C5.82581 22.6099 5.95484 22.5905 6 22.5C6.04516 22.416 5.98064 22.3125 5.85161 22.2478C5.72258 22.2091 5.61935 22.2285 5.57419 22.2931ZM7.66452 24.5948C7.56129 24.6789 7.6 24.8728 7.74839 24.9957C7.89677 25.1444 8.08387 25.1638 8.16774 25.0603C8.25161 24.9763 8.2129 24.7823 8.08387 24.6595C7.94194 24.5108 7.74839 24.4914 7.66452 24.5948ZM6.92903 23.6444C6.82581 23.7091 6.82581 23.8772 6.92903 24.0259C7.03226 24.1746 7.20645 24.2392 7.29032 24.1746C7.39355 24.0905 7.39355 23.9224 7.29032 23.7737C7.2 23.625 7.03226 23.5603 6.92903 23.6444Z" fill="#FFB053"/>
</svg>
