<svg width="32" height="27" viewBox="0 0 32 27" fill="none" xmlns="http://www.w3.org/2000/svg">
<g clip-path="url(#clip0_1_17)">
<path d="M10.0634 26.2286C22.1389 26.2286 28.7436 16.1369 28.7436 7.38541C28.7436 7.09868 28.7436 6.81334 28.7245 6.52799C30.0093 5.59091 31.1184 4.43059 32 3.10135C30.8018 3.63695 29.5307 3.98819 28.2291 4.14337C29.5996 3.31573 30.6254 2.014 31.1155 0.480435C29.8267 1.25182 28.4168 1.79544 26.9465 2.08784C25.9566 1.02612 24.6474 0.323085 23.2215 0.0875243C21.7957 -0.148036 20.3325 0.0970099 19.0586 0.784743C17.7847 1.47248 16.771 2.56456 16.1744 3.89199C15.5777 5.21942 15.4314 6.70821 15.7581 8.12796C13.1479 7.99594 10.5943 7.31169 8.26325 6.11961C5.93217 4.92753 3.87567 3.25428 2.22725 1.20848C1.38769 2.6664 1.13053 4.39228 1.50814 6.03474C1.88575 7.67719 2.86973 9.11273 4.25975 10.0491C3.21497 10.0178 2.19297 9.73352 1.28 9.22015V9.30401C1.2804 10.833 1.80512 12.3149 2.76516 13.4981C3.7252 14.6814 5.06144 15.4933 6.54725 15.796C5.58068 16.0619 4.56654 16.1008 3.58275 15.9096C4.00227 17.2256 4.81904 18.3763 5.91883 19.2009C7.01861 20.0256 8.3464 20.4828 9.7165 20.5088C7.39167 22.3519 4.51976 23.3524 1.56288 23.3494C1.04051 23.3483 0.518659 23.3164 0 23.2538C3.00242 25.1974 6.4959 26.2283 10.0634 26.2235" fill="#FFB053"/>
</g>
<defs>
<clipPath id="clip0_1_17">
<rect width="32" height="26.3529" fill="white"/>
</clipPath>
</defs>
</svg>
